<?xml version="1.0" encoding="UTF-8" standalone="no"?>
<!-- Created with Inkscape (http://www.inkscape.org/) -->

<svg
   xmlns:dc="http://purl.org/dc/elements/1.1/"
   xmlns:cc="http://creativecommons.org/ns#"
   xmlns:rdf="http://www.w3.org/1999/02/22-rdf-syntax-ns#"
   xmlns:svg="http://www.w3.org/2000/svg"
   xmlns="http://www.w3.org/2000/svg"
   xmlns:sodipodi="http://sodipodi.sourceforge.net/DTD/sodipodi-0.dtd"
   xmlns:inkscape="http://www.inkscape.org/namespaces/inkscape"
   width="297mm"
   height="210mm"
   viewBox="0 0 297 210"
   version="1.1"
   id="svg8"
   inkscape:version="0.92.4 (5da689c313, 2019-01-14)"
   sodipodi:docname="mandiri.svg"
   inkscape:export-filename="/home/shiddiq/mandiri.svg.png"
   inkscape:export-xdpi="96"
   inkscape:export-ydpi="96">
  <defs
     id="defs2" />
  <sodipodi:namedview
     id="base"
     pagecolor="#ffffff"
     bordercolor="#666666"
     borderopacity="1.0"
     inkscape:pageopacity="0.0"
     inkscape:pageshadow="2"
     inkscape:zoom="0.53584806"
     inkscape:cx="706.76224"
     inkscape:cy="450.50143"
     inkscape:document-units="mm"
     inkscape:current-layer="layer1"
     showgrid="false"
     showguides="true"
     inkscape:guide-bbox="true"
     inkscape:window-width="1366"
     inkscape:window-height="715"
     inkscape:window-x="0"
     inkscape:window-y="24"
     inkscape:window-maximized="1"
     inkscape:snap-object-midpoints="true"
     inkscape:snap-center="false"
     inkscape:snap-smooth-nodes="true">
    <inkscape:grid
       type="xygrid"
       id="grid188" />
  </sodipodi:namedview>
  <metadata
     id="metadata5">
    <rdf:RDF>
      <cc:Work
         rdf:about="">
        <dc:format>image/svg+xml</dc:format>
        <dc:type
           rdf:resource="http://purl.org/dc/dcmitype/StillImage" />
        <dc:title></dc:title>
      </cc:Work>
    </rdf:RDF>
  </metadata>
  <g
     inkscape:label="Layer 1"
     inkscape:groupmode="layer"
     id="layer1"
     transform="translate(0,-87)">
    <ellipse
       style="fill:#ffffff;stroke-width:0.33229408"
       id="path101"
       cx="203.73366"
       cy="167.0507"
       rx="0.10962407"
       ry="3.2887223" />
    <path
       style="stroke-width:0.82146049"
       d="m 228.4082,111.56055 c -2.46788,0.0609 -5.2127,0.39156 -8.27148,1.02539 -48.94032,10.14164 4.41689,60.12665 -40.42774,83.14844 -44.84486,23.02174 -49.57663,-51.92732 -87.269527,-17.59376 -37.692881,34.33335 32.595637,49.5661 4.623047,92.8711 -27.972064,43.30454 -67.928268,-18.88396 -84.273438,30.4414 -16.3456464,49.32533 52.040071,25.72649 48.435547,77.71094 -3.596598,51.98476 -68.082748,19.21542 -58.7011715,70.31641 9.3816235,51.10046 57.5405055,-5.00595 79.2695315,41.72851 21.728521,46.73469 -49.991652,52.16807 -17.396485,91.35157 31.942261,38.39882 47.019536,-31.48395 86.421876,-7.04297 V 510.4082 A 161.10729,168.51247 4.1686395 0 1 110.74414,386.4043 161.10729,168.51247 4.1686395 0 1 283.67383,230.04688 161.10729,168.51247 4.1686395 0 1 411.27148,313.75781 h 66.56641 c -6.11552,-2.74593 -11.6834,-7.99974 -16.13867,-17.58203 -21.72877,-46.73446 49.99181,-52.16788 17.39648,-91.35156 -32.59494,-39.18369 -47.62311,34.39964 -88.86328,5.4375 -41.2399,-28.96214 18.50615,-71.14274 -28.56836,-87.91016 -4.41343,-1.5716 -8.21829,-2.37 -11.53125,-2.52734 -32.02585,-1.52175 -18.07596,56.78042 -63.11719,53.67187 -46.59475,-3.21594 -21.58921,-62.84991 -58.60742,-61.93554 z m 80.55664,563.76757 c 3.14819,0.63765 6.89504,0.68035 11.39063,0 z"
       transform="matrix(0.26458333,0,0,0.26458333,0,87)"
       id="path49-3"
       inkscape:connector-curvature="0" />
    <path
       style="font-style:normal;font-weight:normal;font-size:56.05065155px;line-height:1.25;font-family:sans-serif;letter-spacing:0px;word-spacing:0px;fill:#000000;fill-opacity:1;stroke:none;stroke-width:2.27117515"
       d="m 203.26932,157.63949 v 19.45508 c -1.29299,-1.86271 -2.73759,-3.26021 -4.33481,-4.19154 -1.57187,-0.93138 -3.30845,-1.3969 -5.20992,-1.3969 -2.45922,0 -4.57621,0.84549 -6.35093,2.53574 -1.77467,1.65574 -2.91592,3.58722 -3.42298,5.79488 -0.4817,2.20766 -0.72261,5.95081 -0.72261,11.22851 v 32.13123 c 0,5.07071 0.24091,8.72745 0.72261,10.9696 0.50706,2.24215 1.63533,4.22583 3.38467,5.95057 1.74932,1.69026 3.81605,2.53489 6.1992,2.53489 1.77472,0 3.47318,-0.51689 5.09576,-1.55171 1.62255,-1.03487 3.16854,-2.58722 4.63901,-4.6569 v 4.9674 h 15.3639 V 157.63949 Z M 68.380628,171.50613 c -2.10428,0 -3.98039,0.65552 -5.62832,1.96631 -1.64792,1.2763 -3.06819,3.20779 -4.259775,5.79489 l 0.266694,-6.51914 H 43.585374 v 68.66215 h 14.907159 v -47.6029 c 0,-3.31149 0.02515,-5.46804 0.07596,-6.46839 0.05074,-1.03483 0.317565,-1.8966 0.799262,-2.58649 0.481703,-0.72441 1.064903,-1.08723 1.749423,-1.08723 1.09017,0 1.74879,0.67261 1.97697,2.01792 0.25353,1.34529 0.38087,5.38197 0.38087,12.10846 v 43.61863 h 14.90717 v -44.75749 c 0,-5.8986 0.15167,-9.53734 0.45591,-10.91714 0.32958,-1.37978 1.04011,-2.07038 2.1303,-2.07038 1.06482,0 1.73641,0.70771 2.0153,2.12202 0.30421,1.37976 0.4559,5.0014 0.4559,10.8655 v 44.75749 h 14.907944 v -48.79336 c 0,-5.62264 -0.24089,-9.67557 -0.722597,-12.1592 -0.481687,-2.51811 -1.584801,-4.63956 -3.308777,-6.36431 -1.69864,-1.72475 -3.85377,-2.58734 -6.46511,-2.58734 -1.9775,0 -3.77737,0.65552 -5.39993,1.96631 -1.62258,1.2763 -3.08015,3.20779 -4.37316,5.79489 -2.3578,-5.17422 -5.59008,-7.7612 -9.69724,-7.7612 z m 51.947502,0 c -4.33532,0 -7.8596,1.10394 -10.57237,3.31159 -2.71273,2.20767 -4.52558,4.76045 -5.43828,7.658 -0.88733,2.86308 -1.33101,6.95022 -1.33101,12.26241 v 4.60529 h 14.41374 v -7.19177 c 0,-3.82893 0.12647,-6.19171 0.38005,-7.08857 0.25353,-0.93135 0.89999,-1.39775 1.93944,-1.39775 0.91271,0 1.55919,0.55197 1.93947,1.65578 0.40564,1.06935 0.6084,3.39791 0.6084,6.98536 0,2.86306 -0.17762,4.76032 -0.53258,5.69169 -0.35492,0.93133 -3.05513,2.74214 -8.10033,5.43274 -4.7156,2.48363 -7.66887,4.65728 -8.86047,6.52001 -1.19156,1.86271 -1.78772,5.36368 -1.78772,10.5034 v 5.64005 c 0,6.93345 1.11608,11.43481 3.34713,13.5045 2.2564,2.03519 4.72786,3.05269 7.41524,3.05269 2.05358,0 3.81614,-0.60332 5.28659,-1.81063 1.4958,-1.24182 2.71249,-3.08771 3.65054,-5.53684 v 6.10626 h 14.94549 v -34.46053 c 0,-11.34878 -0.26602,-18.83421 -0.79843,-22.45616 -0.53242,-3.65645 -2.11735,-6.7261 -4.75403,-9.20972 -2.6367,-2.5181 -6.55355,-3.7778 -11.75087,-3.7778 z m 47.61273,0 c -2.10428,0 -3.96823,0.63839 -5.5908,1.91471 -1.59724,1.2418 -2.95338,3.12194 -4.06893,5.64005 l 0.26668,-6.3127 h -15.63057 v 68.66215 h 15.36389 v -46.4133 c 0,-5.1742 0.13953,-8.34741 0.41837,-9.52022 0.27891,-1.20733 0.96348,-1.81149 2.05365,-1.81149 1.03947,0 1.67295,0.51773 1.90111,1.55258 0.22819,1.03484 0.34255,3.91536 0.34255,8.64115 v 47.55128 h 15.3639 v -48.12072 c 0,-6.00209 -0.24091,-10.27923 -0.72262,-12.83184 -0.48169,-2.58709 -1.55884,-4.72566 -3.23215,-6.41591 -1.67326,-1.69025 -3.8284,-2.53574 -6.46508,-2.53574 z m 101.95563,0 c -4.23393,0.37942 -7.46621,3.79482 -9.69726,10.24533 l 0.60842,-9.00327 h -15.36388 v 68.66215 h 15.36388 v -27.11305 c 0,-6.65749 0.15245,-10.9004 0.45672,-12.72862 0.30425,-1.86273 1.11534,-3.31156 2.4337,-4.34639 1.31833,-1.03483 3.38426,-1.55259 6.19842,-1.55259 z m -45.74914,1.24206 v 68.66215 h 15.82061 v -68.66215 z m 49.13378,0 v 68.66215 h 15.82061 v -68.66215 z m -72.36883,10.91714 c 0.93806,0 1.55854,0.4313 1.86278,1.29368 0.32959,0.86235 0.49424,2.55252 0.49424,5.07062 v 31.76995 c 0,3.82894 -0.16465,6.24392 -0.49424,7.24428 -0.32959,0.96584 -0.9882,1.44849 -1.97697,1.44849 -0.86199,0 -1.44519,-0.4313 -1.7494,-1.29368 -0.30425,-0.89686 -0.45674,-2.7419 -0.45674,-5.53598 v -33.63306 c 0,-2.69058 0.15245,-4.41496 0.45674,-5.17384 0.32958,-0.7934 0.9509,-1.19046 1.86359,-1.19046 z m -78.64473,25.09511 v 14.12553 c 0,3.44948 -0.15245,5.58804 -0.45671,6.41592 -0.27888,0.79337 -0.89939,1.19046 -1.8628,1.19046 -1.01409,0 -1.69867,-0.51774 -2.05363,-1.55259 -0.32957,-1.03483 -0.49422,-3.3283 -0.49422,-6.88126 0,-3.10453 0.18978,-5.48443 0.57008,-7.14019 0.40564,-1.65575 1.83806,-3.70874 4.29728,-6.15787 z"
       id="text91"
       inkscape:connector-curvature="0" />
    <circle
       style="fill:#000000;stroke-width:0.26458332"
       id="path3897"
       cx="235.52551"
       cy="148.73311"
       r="15.013235" />
    <circle
       style="fill:#1a1a1a;stroke-width:0.47888827"
       id="path3916"
       cx="235.52551"
       cy="148.73311"
       r="10.743022" />
    <circle
       style="fill:#b3b3b3;stroke-width:0.11230186"
       id="path3897-8"
       cx="235.52551"
       cy="148.73311"
       r="6.3723373" />
    <circle
       style="fill:#000000;stroke-width:0.26458332"
       id="path3897-9"
       cx="280.84738"
       cy="148.73311"
       r="15.013235" />
    <circle
       style="fill:#1a1a1a;stroke-width:0.47888827"
       id="path3916-7"
       cx="280.84738"
       cy="148.73311"
       r="10.743022" />
    <circle
       style="fill:#cccccc;stroke-width:0.11230186"
       id="path3897-8-7"
       cx="280.84738"
       cy="148.73311"
       r="6.3723373" />
    <path
       style="fill:#000000;stroke-width:0.26458332"
       d="m 245.68378,135.36543 c 0,0 8.53316,2.64266 12.8799,2.64583 4.34674,0.003 13.11452,-2.64583 13.11452,-2.64583 0,0 -7.69549,4.95881 -7.40834,13.41971 0.28715,8.4609 6.82561,13.01491 6.82561,13.01491 0,0 -8.24188,-3.25742 -12.35659,-3.29857 -4.11472,-0.0411 -12.33169,3.05168 -12.33169,3.05168 0,0 5.22345,-3.61095 5.18994,-12.81982 -0.0335,-9.20887 -5.91335,-13.36791 -5.91335,-13.36791 z"
       id="rect3939"
       inkscape:connector-curvature="0"
       sodipodi:nodetypes="czczczczc" />
  </g>
</svg>
